<svg height="512" viewBox="0 0 64 64" width="512" xmlns="http://www.w3.org/2000/svg"><g id="flat"><path d="m13 25h38a10 10 0 0 1 10 10 0 0 0 0 1 0 0h-58a0 0 0 0 1 0 0 10 10 0 0 1 10-10z" fill="#e1462b"/><path d="m3 35h58a0 0 0 0 1 0 0 4 4 0 0 1 -4 4h-50a4 4 0 0 1 -4-4 0 0 0 0 1 0 0z" fill="#f9bb4b"/><path d="m28 43h-4l-2-4h8z" fill="#4f97d5"/><path d="m40 43h-4l-2-4h8z" fill="#4f97d5"/><path d="m29 9h6a16 16 0 0 1 16 16 0 0 0 0 1 0 0h-38a0 0 0 0 1 0 0 16 16 0 0 1 16-16z" fill="#50b4f8"/><path d="m48 29h8v2h-8z" fill="#fcf05a"/><path d="m44 29h2v2h-2z" fill="#fcf05a"/><path d="m18 25h-2a13.015 13.015 0 0 1 13-13h4v2h-4a11.013 11.013 0 0 0 -11 11z" fill="#f4f4e6"/><path d="m35 12h2v2h-2z" fill="#f4f4e6"/><path d="m45 20h2v2h-2z" fill="#f4f4e6"/><path d="m41 18h2v2h-2z" fill="#f4f4e6"/><path d="m8 29h8v2h-8z" fill="#fcf05a"/><g fill="#e97424"><path d="m12.136 49.5h12.728v2h-12.728z" transform="matrix(.707 -.707 .707 .707 -30.29 27.873)"/><path d="m44.5 44.136h2v12.728h-2z" transform="matrix(.707 -.707 .707 .707 -22.382 46.964)"/><path d="m27 46h2v9h-2z"/><path d="m35 46h2v9h-2z"/><path d="m23 51h2v4h-2z"/><path d="m39 51h2v4h-2z"/></g></g></svg>