<svg height="512" viewBox="0 0 64 64" width="512" xmlns="http://www.w3.org/2000/svg"><g id="flat"><path d="m13 27h38a10 10 0 0 1 10 10 0 0 0 0 1 0 0h-58a0 0 0 0 1 0 0 10 10 0 0 1 10-10z" fill="#f9bb4b"/><path d="m27 13h10a14 14 0 0 1 14 14 0 0 0 0 1 0 0h-38a0 0 0 0 1 0 0 14 14 0 0 1 14-14z" fill="#50b4f8"/><path d="m32 8a4 4 0 0 1 4 4v1a0 0 0 0 1 0 0h-8a0 0 0 0 1 0 0v-1a4 4 0 0 1 4-4z" fill="#f9bb4b"/><path d="m48 27h-2a9.01 9.01 0 0 0 -9-9v-2a11.013 11.013 0 0 1 11 11z" fill="#f4f4e6"/><path d="m33 16h2v2h-2z" fill="#f4f4e6"/><path d="m18 27h-2a11.013 11.013 0 0 1 11-11v2a9.01 9.01 0 0 0 -9 9z" fill="#f4f4e6"/><path d="m29 16h2v2h-2z" fill="#f4f4e6"/><path d="m29 27h6a0 0 0 0 1 0 0v3a3 3 0 0 1 -3 3 3 3 0 0 1 -3-3v-3a0 0 0 0 1 0 0z" fill="#fcf05a"/><path d="m22 30h4v2h-4z" fill="#fcf05a"/><path d="m38 30h4v2h-4z" fill="#fcf05a"/><path d="m43 43h-21l-4-6h28z" fill="#5f79ba"/><g fill="#50b4f8"><path d="m21 46h2v10h-2z"/><path d="m41 46h2v10h-2z"/><path d="m31 50h2v6h-2z"/><path d="m27 48h2v5h-2z"/><path d="m35 48h2v5h-2z"/></g></g></svg>