<svg height="512" viewBox="0 0 64 64" width="512" xmlns="http://www.w3.org/2000/svg"><g id="flat"><path d="m32 7a17 17 0 0 1 17 17v1a0 0 0 0 1 0 0h-34a0 0 0 0 1 0 0v-1a17 17 0 0 1 17-17z" fill="#50b4f8"/><g fill="#f9bb4b"><path d="m12 21a3 3 0 0 1 3 3v1a0 0 0 0 1 0 0h-6a0 0 0 0 1 0 0v-1a3 3 0 0 1 3-3z"/><path d="m22 21a3 3 0 0 1 3 3v1a0 0 0 0 1 0 0h-6a0 0 0 0 1 0 0v-1a3 3 0 0 1 3-3z"/><path d="m32 21a3 3 0 0 1 3 3v1a0 0 0 0 1 0 0h-6a0 0 0 0 1 0 0v-1a3 3 0 0 1 3-3z"/><path d="m42 21a3 3 0 0 1 3 3v1a0 0 0 0 1 0 0h-6a0 0 0 0 1 0 0v-1a3 3 0 0 1 3-3z"/><path d="m52 21a3 3 0 0 1 3 3v1a0 0 0 0 1 0 0h-6a0 0 0 0 1 0 0v-1a3 3 0 0 1 3-3z"/></g><path d="m42 37h-20l-2-4h24z" fill="#d9176c"/><path d="m43.088 18.411c-1.727-3.835-5.379-6.411-9.088-6.411h-2v-2h2c4.482 0 8.867 3.05 10.912 7.589z" fill="#f4f4e6"/><path d="m28 10h2v2h-2z" fill="#f4f4e6"/><path d="m26 40h2v15h-2z" fill="#50b4f8"/><path d="m31 43h2v14h-2z" fill="#50b4f8"/><path d="m36 40h2v15h-2z" fill="#50b4f8"/><path d="m9 25-4 3.079a5.39 5.39 0 0 0 -2 4.921h58a5.39 5.39 0 0 0 -2-4.921l-4-3.079z" fill="#5e2c81"/><path d="m27 28h10v2h-10z" fill="#dc93bf"/><path d="m54 28h2v2h-2z" fill="#dc93bf"/><path d="m50 28h2v2h-2z" fill="#dc93bf"/></g></svg>