<svg height="512" viewBox="0 0 64 64" width="512" xmlns="http://www.w3.org/2000/svg"><g id="flat"><path d="m32 4a2 2 0 0 1 2 2v8a0 0 0 0 1 0 0h-4a0 0 0 0 1 0 0v-8a2 2 0 0 1 2-2z" fill="#f9bb4b"/><path d="m3 31h58a0 0 0 0 1 0 0 12 12 0 0 1 -12 12h-34a12 12 0 0 1 -12-12 0 0 0 0 1 0 0z" fill="#7fcac9"/><path d="m3 31 1-1a22.45 22.45 0 0 1 17-7h22a22.45 22.45 0 0 1 17 7l1 1z" fill="#5f79ba"/><path d="m31 13h2a10 10 0 0 1 10 10 0 0 0 0 1 0 0h-22a0 0 0 0 1 0 0 10 10 0 0 1 10-10z" fill="#50b4f8"/><path d="m31 17h2a6 6 0 0 1 6 6 0 0 0 0 1 0 0h-14a0 0 0 0 1 0 0 6 6 0 0 1 6-6z" fill="#96c3f0"/><g fill="#98ecb7"><path d="m47.259 40.082a10.462 10.462 0 0 1 -1.4-.091l.276-1.982a7.773 7.773 0 0 0 6.184-1.744 6.761 6.761 0 0 0 1.742-2.618l1.872.706a8.744 8.744 0 0 1 -2.258 3.382 9.391 9.391 0 0 1 -6.416 2.347z"/><path d="m42 38h2v2h-2z"/><path d="m32 37a6 6 0 0 1 6 6 0 0 0 0 1 0 0h-12a0 0 0 0 1 0 0 6 6 0 0 1 6-6z"/></g><path d="m21 26h22v2h-22z" fill="#f4f4e6"/><path d="m9 35h2v2h-2z" fill="#98ecb7"/><path d="m13 38h2v2h-2z" fill="#98ecb7"/><path d="m40 61h-3a4 4 0 0 1 -4-4 2 2 0 0 0 -2-2h-2a4 4 0 0 1 -4-4v-5h2v5a2 2 0 0 0 2 2h2a4 4 0 0 1 4 4 2 2 0 0 0 2 2h3z" fill="#50b4f8"/><path d="m56 61h-6a4 4 0 0 1 -4-4 2 2 0 0 0 -2-2h-3a4 4 0 0 1 -4-4v-5h2v5a2 2 0 0 0 2 2h3a4 4 0 0 1 4 4 2 2 0 0 0 2 2h6z" fill="#50b4f8"/></g></svg>