<svg height="512" viewBox="0 0 64 64" width="512" xmlns="http://www.w3.org/2000/svg"><g id="flat"><path d="m7 24h50a4 4 0 0 1 4 4 0 0 0 0 1 0 0h-58a0 0 0 0 1 0 0 4 4 0 0 1 4-4z" fill="#195c85"/><path d="m7 28h50a4 4 0 0 1 4 4 0 0 0 0 1 0 0h-58a0 0 0 0 1 0 0 4 4 0 0 1 4-4z" fill="#87cee9" transform="matrix(-1 0 0 -1 64 60)"/><path d="m42 40h-21l-1.24-.09h-.01c-3.99-.59-7.75-3.91-7.75-7.91h40a7.376 7.376 0 0 1 -3.34 5.66 12.673 12.673 0 0 1 -4.21 2.01z" fill="#2d75bb"/><g fill="#50b4f8"><path d="m40 14a8 8 0 0 0 -16 0 10 10 0 0 0 -10 10h36a10 10 0 0 0 -10-10z"/><path d="m23.51 40h-2.51a8.621 8.621 0 0 1 -1.24-.09h-.01a12.288 12.288 0 0 1 -2.75-7.91h2c0 3.65 1.87 6.77 4.51 8z"/><path d="m29.51 40h-3.68a12.237 12.237 0 0 1 -2.83-8h2c0 3.65 1.87 6.77 4.51 8z"/><path d="m47 32a12.341 12.341 0 0 1 -2.55 7.67 10.08 10.08 0 0 1 -2.45.33h-1.51c2.64-1.23 4.51-4.35 4.51-8z"/><path d="m41 32a12.237 12.237 0 0 1 -2.83 8h-3.68c2.64-1.23 4.51-4.35 4.51-8z"/><path d="m31 32h2v8h-2z"/></g><path d="m19 19h2v2h-2z" fill="#f4f4e6"/><path d="m23 17h2v2h-2z" fill="#f4f4e6"/><path d="m32 18h13v2h-13z" fill="#f4f4e6"/><path d="m21 58v-2a7.008 7.008 0 0 0 7-7v-6h2v6a9.01 9.01 0 0 1 -9 9z" fill="#e97424"/><path d="m43 58a9.01 9.01 0 0 1 -9-9v-4h2v4a7.008 7.008 0 0 0 7 7z" fill="#e97424"/><path d="m31 54h2v4h-2z" fill="#e97424"/></g></svg>