<svg height="512" viewBox="0 0 64 64" width="512" xmlns="http://www.w3.org/2000/svg"><g id="flat"><path d="m3 3h58v58h-58z" fill="#4f97d5"/><path d="m3 41 24.042-18.775a4.184 4.184 0 0 1 5.916 0l28.042 22.775v16h-58z" fill="#8ec13f"/><path d="m17 55h4v6h-4z" fill="#66342e"/><path d="m26 55h4v6h-4z" fill="#66342e"/><path d="m36 55h4v6h-4z" fill="#66342e"/><path d="m50 54h4v7h-4z" fill="#66342e"/><path d="m7 55h4v6h-4z" fill="#66342e"/><path d="m44 11h8a4 4 0 0 1 4 4 0 0 0 0 1 0 0h-16a0 0 0 0 1 0 0 4 4 0 0 1 4-4z" fill="#f9bb4b"/><path d="m48 7a3 3 0 0 1 3 3v1a0 0 0 0 1 0 0h-6a0 0 0 0 1 0 0v-1a3 3 0 0 1 3-3z" fill="#fcf05a"/><path d="m49 25h-2v-1a1 1 0 0 0 -1-1 3 3 0 0 1 -3-3v-2h2v2a1 1 0 0 0 1 1 3 3 0 0 1 3 3z" fill="#f4f4e6"/><path d="m56 25h-2v-1a1 1 0 0 0 -1-1 3 3 0 0 1 -3-3v-2h2v2a1 1 0 0 0 1 1 3 3 0 0 1 3 3z" fill="#f4f4e6"/><path d="m19 13h-1.277a1.988 1.988 0 0 0 -1.723-3c-.538 0-1 0-2 1a2.964 2.964 0 0 0 -3-2c-1.657 0-2 1.343-2 3v1a2 2 0 0 0 0 4h10a2 2 0 0 0 0-4z" fill="#f4f4e6"/><g fill="#c8d952"><path d="m16 35h2v2h-2z"/><path d="m22 35h2v2h-2z"/><path d="m20 31h2v2h-2z"/><path d="m28 31h2v2h-2z"/><path d="m34 35h2v2h-2z"/><path d="m38 40h2v2h-2z"/><path d="m39 33h2v2h-2z"/><path d="m34 29h2v2h-2z"/><path d="m27 26h2v2h-2z"/><rect height="10" rx="4" width="8" x="15" y="46"/></g><rect fill="#3e8051" height="16" rx="5" width="10" x="23" y="40"/><rect fill="#c8d952" height="10" rx="5" width="10" x="33" y="46"/><rect fill="#3e8051" height="15" rx="6" width="12" x="3" y="41"/><rect fill="#3e8051" height="20" rx="9" width="18" x="43" y="35"/></g></svg>