<svg id="Capa_1" enable-background="new 0 0 512 512" height="512" viewBox="0 0 512 512" width="512" xmlns="http://www.w3.org/2000/svg"><g><circle cx="106" cy="114" fill="#ffe196" r="15"/><circle cx="106" cy="54" fill="#ffe196" r="15"/><circle cx="406" cy="114" fill="#ffb454" r="15"/><circle cx="406" cy="54" fill="#ffb454" r="15"/><path d="m256 512c-4.385 0-8.55-1.919-11.399-5.251-1.781-2.081-43.601-51.672-43.601-111.749 0-8.284 6.716-15 15-15h80c8.284 0 15 6.716 15 15 0 60.077-41.82 109.668-43.601 111.749-2.849 3.332-7.014 5.251-11.399 5.251z" fill="#ffe196"/><g><path d="m296 380h-40v132c4.385 0 8.55-1.919 11.399-5.251 1.781-2.081 43.601-51.672 43.601-111.749 0-8.284-6.716-15-15-15z" fill="#ffb454"/></g><g><path d="m380.31 261.633-49.657-14.897c.233-7.462.347-14.646.347-21.736 0-36.442-2.597-71.571-7.482-102.849l-67.518-20-67.518 20c-4.885 31.278-7.482 66.407-7.482 102.849 0 7.09.114 14.274.347 21.735l-49.657 14.897c-6.345 1.904-10.69 7.744-10.69 14.368v69c0 8.284 6.716 15 15 15h39.845l16.228 40.571c2.278 5.695 7.793 9.429 13.927 9.429h100c6.134 0 11.649-3.734 13.927-9.429l16.228-40.571h39.845c8.284 0 15-6.716 15-15v-69c0-6.624-4.345-12.464-10.69-14.367z" fill="#f9f9f9"/><g><path d="m380.31 261.633-49.657-14.897c.233-7.462.347-14.646.347-21.736 0-36.442-2.597-71.571-7.482-102.849l-67.518-20v307.849h50c6.134 0 11.649-3.734 13.927-9.429l16.228-40.571h39.845c8.284 0 15-6.716 15-15v-69c0-6.624-4.345-12.464-10.69-14.367z" fill="#e4e4ff"/></g><path d="m256 140c20.477 0 40.316-4.605 58.965-13.685l8.553-4.165c-2.816-18.03-6.389-34.785-10.669-49.764-13.723-48.032-32.85-72.386-56.849-72.386s-43.126 24.354-56.849 72.387c-4.28 14.979-7.853 31.734-10.669 49.764l8.553 4.165c18.649 9.079 38.487 13.684 58.965 13.684z" fill="#ff6378"/><g><path d="m312.849 72.387c-13.723-48.033-32.85-72.387-56.849-72.387v140c20.477 0 40.316-4.605 58.965-13.685l8.553-4.165c-2.816-18.029-6.389-34.784-10.669-49.763z" fill="#d0004f"/></g></g><path d="m256 270c-8.284 0-15-6.716-15-15v-60c0-8.284 6.716-15 15-15s15 6.716 15 15v60c0 8.284-6.716 15-15 15z" fill="#524798"/><g><path d="m436 350h-60c-8.284 0-15-6.716-15-15v-87.573c0-31.365 12.214-60.854 34.393-83.033 2.813-2.814 6.628-4.394 10.607-4.394 3.978 0 7.793 1.58 10.607 4.394 22.179 22.179 34.393 51.667 34.393 83.033v87.573c0 8.284-6.716 15-15 15z" fill="#b7b4e7"/><path d="m361 335v60c0 8.284 6.716 15 15 15h60c8.284 0 15-6.716 15-15v-60z" fill="#d0004f"/></g><g><path d="m136 350h-60c-8.284 0-15-6.716-15-15v-87.573c0-31.365 12.214-60.854 34.393-83.033 2.813-2.814 6.628-4.394 10.607-4.394 3.978 0 7.793 1.58 10.607 4.394 22.179 22.179 34.393 51.667 34.393 83.033v87.573c0 8.284-6.716 15-15 15z" fill="#e4e4ff"/><path d="m61 335v60c0 8.284 6.716 15 15 15h60c8.284 0 15-6.716 15-15v-60z" fill="#ff6378"/></g><g><g><path d="m256 180v90c8.284 0 15-6.716 15-15v-60c0-8.284-6.716-15-15-15z" fill="#38336b"/></g></g></g></svg>