<svg height="512" viewBox="0 0 64 64" width="512" xmlns="http://www.w3.org/2000/svg"><g id="flat"><path d="m32 8a18 18 0 0 1 18 18 0 0 0 0 1 0 0h-36a0 0 0 0 1 0 0 18 18 0 0 1 18-18z" fill="#50b4f8"/><path d="m47 26h-2a13.015 13.015 0 0 0 -13-13v-2a15.017 15.017 0 0 1 15 15z" fill="#f4f4e6"/><path d="m28 11h2v2h-2z" fill="#f4f4e6"/><path d="m18 21h2v2h-2z" fill="#f4f4e6"/><path d="m22 18h2v2h-2z" fill="#f4f4e6"/><rect fill="#d9176c" height="8" rx="4" width="58" x="3" y="26"/><g fill="#f98c96"><path d="m10 29h2v2h-2z"/><path d="m16 29h2v2h-2z"/><path d="m22 29h2v2h-2z"/><path d="m28 29h2v2h-2z"/><path d="m34 29h2v2h-2z"/><path d="m40 29h2v2h-2z"/><path d="m46 29h2v2h-2z"/><path d="m52 29h2v2h-2z"/></g><path d="m44 38h-24l-4-4h32z" fill="#f9bb4b"/><path d="m42 40.738h2v15.524h-2z" fill="#50b4f8" transform="matrix(.966 -.258 .258 .966 -11.045 12.717)"/><path d="m13.238 47.5h15.524v2h-15.524z" fill="#50b4f8" transform="matrix(.258 -.966 .966 .258 -31.274 56.288)"/><path d="m31 41h2v12h-2z" fill="#50b4f8"/><path d="m20.28 50h10.44v2h-10.44z" fill="#50b4f8" transform="matrix(.287 -.958 .958 .287 -30.674 60.786)"/><path d="m37.5 45.78h2v10.44h-2z" fill="#50b4f8" transform="matrix(.958 -.287 .287 .958 -13.031 13.214)"/></g></svg>