<svg height="512" viewBox="0 0 64 64" width="512" xmlns="http://www.w3.org/2000/svg"><g id="flat"><path d="m61 30h-58l2-2c3.135-3.583 7.239-6 12-6h30c4.761 0 8.865 2.417 12 6z" fill="#3e5496"/><path d="m45 34h-26a3.64 3.64 0 0 1 -3-1l-3-3h38l-3 3a3.64 3.64 0 0 1 -3 1z" fill="#7fcac9"/><path d="m26 34h12a0 0 0 0 1 0 0v2a2 2 0 0 1 -2 2h-8a2 2 0 0 1 -2-2v-2a0 0 0 0 1 0 0z" fill="#50b3c9"/><path d="m29 38h6a0 0 0 0 1 0 0v1a3 3 0 0 1 -3 3 3 3 0 0 1 -3-3v-1a0 0 0 0 1 0 0z" fill="#f9bb4b"/><path d="m28 10h8a12 12 0 0 1 12 12 0 0 0 0 1 0 0h-32a0 0 0 0 1 0 0 12 12 0 0 1 12-12z" fill="#50b4f8"/><path d="m45 22h-2a7.008 7.008 0 0 0 -7-7v-2a9.011 9.011 0 0 1 9 9z" fill="#f4f4e6"/><path d="m32 13h2v2h-2z" fill="#f4f4e6"/><g fill="#87cee9"><path d="m13 25h2v2h-2z"/><path d="m17 25h2v2h-2z"/><path d="m30 25h4v2h-4z"/></g><path d="m32 51.308a12.277 12.277 0 0 1 -8.707-3.6l1.414-1.414a10.326 10.326 0 0 0 14.586 0l1.414 1.414a12.277 12.277 0 0 1 -8.707 3.6z" fill="#e97424"/><path d="m32 55.549a16.5 16.5 0 0 1 -11.707-4.842l1.414-1.414a14.572 14.572 0 0 0 20.586 0l1.414 1.414a16.5 16.5 0 0 1 -11.707 4.842z" fill="#e97424"/><path d="m32 47.067a8.042 8.042 0 0 1 -5.707-2.36l1.414-1.414a6.078 6.078 0 0 0 8.586 0l1.414 1.414a8.042 8.042 0 0 1 -5.707 2.36z" fill="#e97424"/></g></svg>