<svg height="512" viewBox="0 0 64 64" width="512" xmlns="http://www.w3.org/2000/svg"><g id="flat"><path d="m11 28h42a8 8 0 0 1 8 8 0 0 0 0 1 0 0h-58a0 0 0 0 1 0 0 8 8 0 0 1 8-8z" fill="#8ec13f"/><path d="m53 40h-42c-3.622 0-5.439-1.439-8-4h58c-2.561 2.561-4.378 4-8 4z" fill="#c8d952"/><path d="m16 24h32v4h-32z" fill="#8ec13f"/><path d="m16 24h4v4h-4z" fill="#3e5496"/><path d="m20 24h4v4h-4z" fill="#5f79ba"/><path d="m24 24h4v4h-4z" fill="#3e5496"/><path d="m28 24h4v4h-4z" fill="#5f79ba"/><path d="m32 24h4v4h-4z" fill="#3e5496"/><path d="m36 24h4v4h-4z" fill="#5f79ba"/><path d="m40 24h4v4h-4z" fill="#3e5496"/><path d="m44 24h4v4h-4z" fill="#5f79ba"/><path d="m36 8h-8a12 12 0 0 0 -12 12v4h32v-4a12 12 0 0 0 -12-12z" fill="#50b4f8"/><path d="m24 31h16v2h-16z" fill="#fcf05a"/><path d="m21 40h22a0 0 0 0 1 0 0 6 6 0 0 1 -6 6h-10a6 6 0 0 1 -6-6 0 0 0 0 1 0 0z" fill="#f9bb4b"/><g fill="#50b4f8"><path d="m26 52h2v4h-2z"/><path d="m36 52h2v4h-2z"/><path d="m31 49h2v6h-2z"/></g><path d="m28 12a8 8 0 0 0 -8 8h7a2.943 2.943 0 0 0 3-3v-3a2 2 0 0 0 -2-2z" fill="#f4f4e6"/><path d="m36 12a2 2 0 0 0 -2 2v3a2.943 2.943 0 0 0 3 3h7a8 8 0 0 0 -8-8z" fill="#f4f4e6"/></g></svg>