<svg height="512" viewBox="0 0 64 64" width="512" xmlns="http://www.w3.org/2000/svg"><g id="flat"><path d="m59 44h-54l-2-4h58z" fill="#f98c96"/><path d="m3 40 10-10h38l10 10z" fill="#5e2c81"/><path d="m27 16h10a14 14 0 0 1 14 14 0 0 0 0 1 0 0h-38a0 0 0 0 1 0 0 14 14 0 0 1 14-14z" fill="#50b4f8"/><path d="m12 44h40a0 0 0 0 1 0 0 4 4 0 0 1 -4 4h-32a4 4 0 0 1 -4-4 0 0 0 0 1 0 0z" fill="#f9bb4b"/><g fill="#f98c96"><path d="m43 34h9v2h-9z"/><path d="m39 34h2v2h-2z"/><path d="m35 34h2v2h-2z"/><path d="m31 34h2v2h-2z"/></g><path d="m27 20h10a10 10 0 0 1 10 10 0 0 0 0 1 0 0h-30a0 0 0 0 1 0 0 10 10 0 0 1 10-10z" fill="#f4f4e6"/><path d="m33.18 26a3 3 0 0 1 5.82 1v3h-6v-3z" fill="#db527d"/><path d="m36 26v2h-3v-1a2.772 2.772 0 0 1 .18-1z" fill="#f9bb4b"/><path d="m23 30h-2v-4a1 1 0 0 1 1-1h4v2h-3z" fill="#f9bb4b"/><path d="m31 51h2v10h-2z" fill="#e97424"/><path d="m4.929 55h14.142v2h-14.142z" fill="#e97424" transform="matrix(.707 -.707 .707 .707 -36.083 24.887)"/><path d="m51 48.929h2v14.142h-2z" fill="#e97424" transform="matrix(.707 -.707 .707 .707 -24.368 53.172)"/><path d="m30 7h4v9h-4z" fill="#5e2c81"/><circle cx="32" cy="6" fill="#f9bb4b" r="3"/></g></svg>