<svg height="512" viewBox="0 0 64 64" width="512" xmlns="http://www.w3.org/2000/svg"><g id="flat"><path d="m32 5a13 13 0 0 1 13 13v2a0 0 0 0 1 0 0h-26a0 0 0 0 1 0 0v-2a13 13 0 0 1 13-13z" fill="#50b4f8"/><path d="m61 29h-58l4.056-4.056a19.364 19.364 0 0 1 13.944-5.944h22a19.364 19.364 0 0 1 13.944 5.944z" fill="#d9176c"/><path d="m27.5 10.379h2v4.243h-2z" fill="#f4f4e6" transform="matrix(.707 -.707 .707 .707 -.491 23.814)"/><path d="m33.379 11.5h4.243v2h-4.243z" fill="#f4f4e6" transform="matrix(.707 -.707 .707 .707 1.559 28.763)"/><path d="m37 37h-10a6.971 6.971 0 0 1 -7-6.781v-1.219h24v1.219a6.971 6.971 0 0 1 -7 6.781z" fill="#f9bb4b"/><path d="m27 37h10a0 0 0 0 1 0 0 4 4 0 0 1 -4 4h-2a4 4 0 0 1 -4-4 0 0 0 0 1 0 0z" fill="#e97424"/><path d="m25 32h2v2h-2z" fill="#ffd782"/><path d="m37 32h2v2h-2z" fill="#ffd782"/><path d="m51 25h2v2h-2z" fill="#f4f4e6"/><path d="m47 23h2v2h-2z" fill="#f4f4e6"/><g fill="#f98c96"><circle cx="21" cy="21" r="2"/><circle cx="32" cy="21" r="2"/><circle cx="43" cy="21" r="2"/></g><path d="m36 59h-2v-5a3 3 0 0 0 -3-3 5.006 5.006 0 0 1 -5-5v-3h2v3a3 3 0 0 0 3 3 5.006 5.006 0 0 1 5 5z" fill="#50b4f8"/><path d="m46 59h-2v-5a3 3 0 0 0 -3-3 5.006 5.006 0 0 1 -5-5v-3h2v3a3 3 0 0 0 3 3 5.006 5.006 0 0 1 5 5z" fill="#50b4f8"/><path d="m32 13a4 4 0 0 1 4 4v2a0 0 0 0 1 0 0h-8a0 0 0 0 1 0 0v-2a4 4 0 0 1 4-4z" fill="#f9bb4b"/><path d="m31 16h2v3h-2z" fill="#f4f4e6"/></g></svg>