<svg height="512pt" viewBox="0 -5 512 512" width="512pt" xmlns="http://www.w3.org/2000/svg"><path d="m7.5 350.667969v102.152343c0 22.574219 18.296875 40.871094 40.867188 40.871094h415.265624c22.570313 0 40.867188-18.296875 40.867188-40.871094v-102.152343zm0 0" fill="#736acb"/><path d="m483.722656 43.421875h-455.445312c-11.476563 0-20.777344 9.300781-20.777344 20.777344v286.46875c0 22.570312 18.296875 40.867187 40.867188 40.867187h415.265624c22.570313 0 40.867188-18.296875 40.867188-40.867187v-286.46875c0-11.476563-9.300781-20.777344-20.777344-20.777344zm0 0" fill="#817cd0"/><path d="m193.929688 246.464844c0-22.027344-30.851563-39.886719-68.910157-39.886719-38.058593 0-68.910156 17.859375-68.910156 39.886719s30.851563 39.882812 68.910156 39.882812c38.058594 0 68.910157-17.855468 68.910157-39.882812zm0 0" fill="#736acb"/><path d="m148.003906 121.394531v102.085938c0 12.695312-10.292968 22.984375-22.984375 22.984375-12.695312 0-22.988281-10.289063-22.988281-22.984375v-102.085938zm0 0" fill="#e4e4e4"/><path d="m102.035156 172.613281c7.378906 1.765625 15.074219 2.703125 22.984375 2.703125 7.910157 0 15.605469-.9375 22.984375-2.703125v-51.21875h-45.96875zm0 0" fill="#cecdd3"/><path d="m193.929688 76.410156c0 38.054688-30.851563 68.90625-68.910157 68.90625-38.058593 0-68.910156-30.851562-68.910156-68.90625 0-38.058594 30.851563-68.910156 68.910156-68.910156 38.058594 0 68.910157 30.851562 68.910157 68.910156zm0 0" fill="#ffa2e7"/><path d="m145.019531 115.316406c-38.058593 0-68.910156-30.851562-68.910156-68.910156 0-7.644531 1.261719-14.988281 3.5625-21.859375-14.433594 12.632813-23.5625 31.175781-23.5625 51.863281 0 38.054688 30.851563 68.90625 68.910156 68.90625 30.414063 0 56.203125-19.707031 65.347657-47.046875-12.121094 10.605469-27.976563 17.046875-45.347657 17.046875zm0 0" fill="#fc79dc"/><path d="m220.089844 203.070312c0 16.660157 18.863281 30.167969 42.132812 30.167969 23.265625 0 42.128906-13.507812 42.128906-30.167969v-37.796874h-84.261718zm0 0" fill="#fc79dc"/><path d="m304.351562 165.273438c0-16.664063-18.863281-30.171876-42.128906-30.171876-23.269531 0-42.132812 13.507813-42.132812 30.171876 0 16.660156 18.863281 30.167968 42.132812 30.167968 23.265625 0 42.128906-13.507812 42.128906-30.167968zm0 0" fill="#ffa2e7"/><path d="m329.152344 150.507812c0 16.664063 18.863281 30.171876 42.132812 30.171876 23.265625 0 42.128906-13.507813 42.128906-30.171876v-37.796874h-84.261718zm0 0" fill="#fab659"/><path d="m413.414062 112.714844c0-16.664063-18.863281-30.171875-42.132812-30.171875-23.265625 0-42.128906 13.507812-42.128906 30.171875 0 16.660156 18.863281 30.167968 42.128906 30.167968 23.269531 0 42.132812-13.507812 42.132812-30.167968zm0 0" fill="#f4e64c"/><path d="m268.058594 322.542969c0 16.660156 18.863281 30.171875 42.128906 30.171875 23.269531 0 42.132812-13.511719 42.132812-30.171875v-37.796875h-84.261718zm0 0" fill="#fab659"/><path d="m352.320312 284.746094c0-16.664063-18.863281-30.171875-42.132812-30.171875s-42.128906 13.507812-42.128906 30.171875c0 16.664062 18.859375 30.167968 42.128906 30.167968s42.132812-13.503906 42.132812-30.167968zm0 0" fill="#f4e64c"/><path d="m377.121094 269.984375c0 16.660156 18.863281 30.167969 42.128906 30.167969 23.269531 0 42.132812-13.507813 42.132812-30.167969v-37.796875h-84.261718zm0 0" fill="#fc79dc"/><path d="m461.382812 232.1875c0-16.664062-18.863281-30.171875-42.132812-30.171875s-42.132812 13.507813-42.132812 30.171875c0 16.660156 18.863281 30.167969 42.132812 30.167969s42.132812-13.507813 42.132812-30.167969zm0 0" fill="#ffa2e7"/><path d="m175.8125 444.847656v-15.871094c0-4.140624-3.355469-7.5-7.5-7.5-4.140625 0-7.5 3.359376-7.5 7.5v15.871094c0 4.140625 3.359375 7.5 7.5 7.5 4.144531 0 7.5-3.359375 7.5-7.5zm0 0"/><path d="m351.1875 444.847656v-15.871094c0-4.140624-3.359375-7.5-7.5-7.5-4.144531 0-7.5 3.359376-7.5 7.5v15.871094c0 4.140625 3.355469 7.5 7.5 7.5 4.140625 0 7.5-3.359375 7.5-7.5zm0 0"/><path d="m256 460.816406c10.597656 0 20.546875-4.421875 27.289062-12.136718 2.726563-3.121094 2.40625-7.859376-.710937-10.582032-3.117187-2.726562-7.855469-2.410156-10.582031.707032-3.894532 4.457031-9.726563 7.011718-15.996094 7.011718s-12.101562-2.554687-15.996094-7.011718c-2.726562-3.117188-7.464844-3.4375-10.582031-.707032-3.121094 2.722656-3.4375 7.460938-.710937 10.582032 6.742187 7.714843 16.691406 12.136718 27.289062 12.136718zm0 0"/><path d="m296.378906 230.5c9.976563-7.144531 15.472656-16.886719 15.472656-27.429688v-37.796874c0-10.546876-5.496093-20.289063-15.472656-27.433594-9.21875-6.601563-21.351562-10.238282-34.15625-10.238282-12.808594 0-24.941406 3.636719-34.160156 10.238282-9.976562 7.148437-15.472656 16.886718-15.472656 27.433594v37.796874c0 10.542969 5.496094 20.285157 15.472656 27.429688 9.21875 6.601562 21.351562 10.238281 34.160156 10.238281 12.804688 0 24.9375-3.636719 34.15625-10.238281zm-34.15625-87.898438c18.769532 0 34.628906 10.382813 34.628906 22.671876 0 16.203124-21.792968 22.667968-34.628906 22.667968-12.96875 0-34.632812-6.363281-34.632812-22.667968 0-12.289063 15.859375-22.671876 34.632812-22.671876zm-34.632812 60.46875v-10.710937c.15625.117187 4.035156 2.714844 5.953125 3.742187 8.3125 4.441407 18.273437 6.839844 28.679687 6.839844s20.363282-2.398437 28.679688-6.839844c1.917968-1.027343 5.792968-3.625 5.949218-3.742187v10.710937c0 12.289063-15.859374 22.667969-34.628906 22.667969-18.773437 0-34.632812-10.382812-34.632812-22.667969zm0 0"/><path d="m405.441406 85.28125c-9.21875-6.601562-21.351562-10.238281-34.160156-10.238281-12.804688 0-24.9375 3.636719-34.15625 10.238281-9.976562 7.144531-15.472656 16.886719-15.472656 27.429688v37.796874c0 10.546876 5.496094 20.289063 15.472656 27.433594 9.21875 6.601563 21.351562 10.238282 34.15625 10.238282 12.808594 0 24.941406-3.636719 34.160156-10.238282 9.976563-7.144531 15.472656-16.886718 15.472656-27.433594v-37.796874c0-10.542969-5.496093-20.285157-15.472656-27.429688zm-34.160156 4.761719c18.773438 0 34.632812 10.382812 34.632812 22.667969 0 12.289062-15.859374 22.671874-34.632812 22.671874-18.769531 0-34.628906-10.382812-34.628906-22.671874 0-12.285157 15.859375-22.667969 34.628906-22.667969zm34.632812 60.464843c0 12.289063-15.859374 22.671876-34.632812 22.671876-18.769531 0-34.628906-10.382813-34.628906-22.671876v-10.707031c.15625.113281.3125.226563.46875.339844.003906 0 .003906.003906.003906.003906 9.21875 6.601563 21.351562 10.238281 34.15625 10.238281 12.808594 0 24.941406-3.636718 34.160156-10.238281v-.003906c.160156-.113281.316406-.226563.472656-.339844zm0 0"/><path d="m453.40625 204.757812c-9.21875-6.605468-21.347656-10.242187-34.15625-10.242187-12.804688 0-24.9375 3.636719-34.15625 10.242187-9.96875 7.136719-15.464844 16.871094-15.472656 27.402344v.027344 37.796875c0 10.542969 5.492187 20.285156 15.472656 27.429687 9.21875 6.605469 21.351562 10.238282 34.15625 10.238282 12.808594 0 24.9375-3.632813 34.160156-10.238282 9.976563-7.144531 15.472656-16.886718 15.472656-27.429687v-37.796875c0-10.542969-5.496093-20.285156-15.476562-27.429688zm-34.15625 4.757813c18.773438 0 34.632812 10.382813 34.632812 22.671875 0 16.351562-21.648437 22.667969-34.632812 22.667969-18.769531 0-34.628906-10.378907-34.628906-22.667969s15.859375-22.671875 34.628906-22.671875zm34.632812 60.46875c0 12.289063-15.859374 22.667969-34.632812 22.667969s-34.632812-10.378906-34.632812-22.667969v-10.710937c.160156.117187.316406.230468.476562.34375 9.21875 6.605468 21.347656 10.238281 34.15625 10.238281 11.996094 0 24.328125-3.199219 34.15625-10.238281.160156-.113282.316406-.226563.476562-.34375zm0 0"/><path d="m344.347656 257.316406c-9.222656-6.605468-21.351562-10.242187-34.160156-10.242187-12.804688 0-24.9375 3.636719-34.15625 10.242187-9.96875 7.136719-15.464844 16.871094-15.472656 27.402344v.027344 37.796875c0 10.542969 5.496094 20.285156 15.472656 27.429687 9.21875 6.601563 21.351562 10.238282 34.15625 10.238282 12.808594 0 24.941406-3.636719 34.160156-10.238282 9.976563-7.144531 15.472656-16.886718 15.472656-27.429687v-37.796875c0-10.542969-5.496093-20.285156-15.472656-27.429688zm-34.160156 4.761719c18.773438 0 34.632812 10.378906 34.632812 22.667969 0 16.183594-21.800781 22.667968-34.632812 22.667968-12.820312 0-34.628906-6.480468-34.628906-22.667968 0-12.289063 15.859375-22.667969 34.628906-22.667969zm34.632812 60.464844c0 12.289062-15.859374 22.671875-34.632812 22.671875s-34.628906-10.382813-34.628906-22.671875v-10.707031c.15625.113281.3125.226562.472656.339843 9.835938 7.054688 22.148438 10.238281 34.15625 10.238281s23.417969-3.195312 32.394531-9.035156c.597657-.386718 2.078125-1.429687 2.234375-1.542968v10.707031zm0 0"/><path d="m48.367188 501.191406h415.265624c26.667969 0 48.367188-21.699218 48.367188-48.371094v-388.621093c0-15.59375-12.683594-28.277344-28.277344-28.277344h-74.332031c-4.140625 0-7.5 3.359375-7.5 7.5s3.359375 7.5 7.5 7.5h74.332031c7.320313 0 13.277344 5.957031 13.277344 13.277344v286.46875c0 18.0625-15.289062 33.367187-33.367188 33.367187h-323.714843c-4.144531 0-7.5 3.359375-7.5 7.5 0 4.144532 3.355469 7.5 7.5 7.5h323.714843c12.277344 0 24.453126-4.867187 33.367188-13.382812v67.167968c0 18.398438-14.96875 33.367188-33.367188 33.367188h-415.265624c-18.398438.003906-33.367188-14.964844-33.367188-33.367188v-67.167968c.140625.132812.285156.257812.429688.390625 8.855468 8.273437 20.824218 12.992187 32.9375 12.992187h61.550781c4.140625 0 7.5-3.355468 7.5-7.5 0-4.140625-3.359375-7.5-7.5-7.5h-61.550781c-17.980469 0-33.367188-15.367187-33.367188-33.367187v-286.46875c0-7.320313 5.957031-13.277344 13.277344-13.277344h24.703125c-2.878907 8.15625-4.371094 16.839844-4.371094 25.488281 0 30.078125 18.398437 58.015625 45.925781 70.042969v56.460937c-28.101562 7.363282-45.925781 24.054688-45.925781 43.550782 0 26.570312 33.5625 47.382812 76.410156 47.382812 42.84375 0 76.410157-20.8125 76.410157-47.382812 0-19.496094-17.824219-36.1875-45.925782-43.550782v-56.460937c13.371094-5.839844 24.765625-15.386719 32.855469-27.351563 7.015625-10.375 11.40625-22.433593 12.671875-34.890624 1.140625-11.183594-.230469-22.683594-3.972656-33.289063h182.335937c4.140625 0 7.5-3.359375 7.5-7.5s-3.359375-7.5-7.5-7.5h-189.621093c-13.523438-21.554687-37.488282-35.921875-64.753907-35.921875-27.269531 0-51.234375 14.367188-64.757812 35.921875h-31.984375c-15.59375 0-28.277344 12.683594-28.277344 28.277344v388.621093c0 26.671876 21.699219 48.371094 48.367188 48.371094zm138.058593-254.726562c0 7.863281-5.835937 15.574218-16.4375 21.710937-11.890625 6.882813-27.863281 10.671875-44.96875 10.671875-17.109375 0-33.078125-3.789062-44.96875-10.671875-10.605469-6.136719-16.441406-13.847656-16.441406-21.710937 0-11.265625 12.332031-22.113282 30.921875-27.941406v4.957031c0 16.808593 13.675781 30.484375 30.488281 30.484375 16.808594 0 30.484375-13.675782 30.484375-30.484375v-4.957031c18.589844 5.828124 30.921875 16.675781 30.921875 27.941406zm-45.921875-22.984375c0 8.539062-6.945312 15.484375-15.484375 15.484375-8.539062 0-15.484375-6.945313-15.484375-15.484375v-72.242188c5 1.035157 10.179688 1.578125 15.484375 1.578125 5.304688 0 10.480469-.542968 15.484375-1.578125zm-15.484375-208.480469c32.761719 0 61.410157 28.648438 61.410157 61.410156 0 33.039063-28.375 61.40625-61.410157 61.40625-33.148437 0-61.410156-28.308594-61.410156-61.40625 0-33.296875 27.902344-61.410156 61.410156-61.410156zm0 0"/></svg>